<svg class="icon-close" version="1.0" xmlns="http://www.w3.org/2000/svg" width="30" height="30" viewBox="0 0 500 500" preserveAspectRatio="xMidYMid meet">
<g transform="translate(0.000000,500.000000) scale(0.100000,-0.100000)" fill="#000" stroke="none">
<path d="M1042 3995 c-33 -28 -49 -77 -37 -117 4 -12 296 -312 648 -666 l642 -642 -642 -643 c-685 -684 -671 -669 -643 -736 17 -41 51 -61 104 -61 l45 0 641 638 c353 350 646 637 650 637 4 0 297 -287 650 -637 l643 -638 44 0 c55 0 78 12 99 52 38 73 61 45 -638 745 l-643 643 636 637 c351 351 642 648 648 660 26 51 1 122 -51 144 -16 6 -45 9 -65 6 -33 -6 -109 -78 -680 -649 l-643 -643 -644 644 c-631 631 -644 643 -688 648 -37 4 -49 1 -76 -22z"></path>
</g>
</svg>
