<svg id="Layer_1" data-name="Layer 1" xmlns="http://www.w3.org/2000/svg" viewBox="0 0 1198.76 175.95"><defs><style>.cls-1{fill:#231f20;}</style></defs><title>TheWallyShop_Logo_Horizontal</title><path class="cls-1" d="M547.41,129c-.49-1.17-1-2.39-1.43-3.59a3,3,0,0,0-3.73-2.2c-1.45.25-2.4.17-2.9-.25s-.74-1.35-.74-2.83c0-3.23,0-6.52,0-9.71.05-6.69.1-13.6-.11-20.4-.55-18-9-30.45-25.1-37.12-10.36-4.31-22.05-5.94-35.73-5-6.07.42-10.8,2.09-14.48,5.09-4.69,3.83-6.53,9.31-5.33,15.83.92,5,4.35,8.16,10.51,9.72,9.18,2.35,17.27-1.68,21.65-10.8.74-1.55,1.32-3.19,1.89-4.77l.51-1.43c6.57,1.93,11.39,9.12,11,16.22l-.81.94-1,.26c-2.57.71-5.2,1.39-7.74,2-5.89,1.53-12,3.11-17.82,5.17-9.34,3.28-16.12,8.61-20.14,15.83-4.33,7.76-5.08,16.8-2,24.19,2,4.88,6.65,11.33,17.19,14.33a36.9,36.9,0,0,0,10.2,1.44,39.72,39.72,0,0,0,12-1.92,70.54,70.54,0,0,0,10.46-4.62c1.06-.54,2.15-1.09,3.25-1.63a1.08,1.08,0,0,1,1.31.33,17.71,17.71,0,0,0,10.27,6.74c9,2.08,17.84.58,26.93-4.59,3.76-2.12,3.78-2.74,2.17-6.63Zm-43.9-11.86c-.07,2.78-2.36,3.67-5.58,4.61a7.37,7.37,0,0,1-7.65-3.49c-1.28-2.63-1.13-3.38-1.47-6.37-.53-4.72.76-10.4,3.62-13.9a17.15,17.15,0,0,1,9.87-5.87,1.06,1.06,0,0,1,1.29,1l0,5.46C503.65,105,503.68,111,503.51,117.11Z" transform="translate(-0.01 -0.03)"/><path class="cls-1" d="M758.25,60.44l0-.57c0-5.21-1.64-9.61-4.64-12.73s-7.54-4.92-12.84-4.92a18.56,18.56,0,0,0-12.48,4.45,15.75,15.75,0,0,0-5.19,12.12,17.88,17.88,0,0,0,.92,5.73,19.28,19.28,0,0,0,3.44,6.88A67.21,67.21,0,0,0,733.56,78l1.28,1.26A6.23,6.23,0,0,1,736.63,82a45,45,0,0,1-2.28,7.27c-.85,2-1.7,4-2.54,5.92l-2.12,5a53.11,53.11,0,0,1-3.05,5.67c-.38-.89-1.25-2.46-1.37-2.72-.53-1.15-1.06-2.31-1.58-3.46-1-2.31-2-4.64-3-7q-3-7-5.67-14.07c-3.66-9.48-7.23-19-10.43-28.68-.41-1.22-.84-1.77-2.18-1.62a6.88,6.88,0,0,0-2.52,1,49.19,49.19,0,0,1-12.41,5.6,53.22,53.22,0,0,1-10.21,1.52c-2,.15-4.06.26-6.09.38l-.78.12c-.81.22-2.13,1-2.2,2.12-.12,2.39-.11,4.78-.09,7.09,0,.8,0,1.59,0,2.37a.86.86,0,0,0,.61.82c6.09,1.86,7.37,3,9.75,8.62,1.45,3.42,2.89,6.92,4.29,10.3,2.92,7.11,6,14.46,9.23,21.56,3.55,7.65,7.59,15.22,11.49,22.54.92,1.73,1.85,3.46,2.76,5.19a3.93,3.93,0,0,1-.48,4.93l-1.22,1.39c-3.67,3.82-8.12,7.15-9.4,7.15s-2.39-1.1-3.88-2.61c-2.72-2.78-6.45-6.59-14.89-6.59a15.17,15.17,0,0,0-11.09,4.65,17.29,17.29,0,0,0-4.56,12.11c0,5.48,1.79,10,5.18,13s8.12,4.49,14,4.49c11,0,22.63-8,35.68-24.8h0a243.24,243.24,0,0,0,16.1-23.94A274.65,274.65,0,0,0,751.38,88q1.33-3.21,2.54-6.42C756.21,75.46,758.5,68.19,758.25,60.44Z" transform="translate(-0.01 -0.03)"/><path class="cls-1" d="M448.29,55.64c-2.26-7.51-8.21-12.39-15.51-12.73-8-.38-14.62,3.58-17.13,10.35a21.11,21.11,0,0,0,7.64,24.59c1.39,1,2.66,1.8,3.88,2.53a1.66,1.66,0,0,1,.86,2.35l-2.67,7.11q-2.89,7.72-5.81,15.43a2.58,2.58,0,0,1-.47.61L404.86,51.52c-.1-.38-.33-2.79-2.53-2.79h-2.62c-5.48,0-11.16,0-16.89.1-1.9,0-2.27,1.79-2.47,2.75-.92,4.45-1.82,9-2.68,13.37-1.4,7.07-3.37,14.55-5,21.7-.94,4.2-1.73,8.22-3,12.29-.46,1.44-.93,2.93-1.38,4.42-3-13.5-5.93-26.56-8.92-39.88,0,0-.12-.48-.23-1-.94-4.2-1.88-8.42-2.83-12.7a4.13,4.13,0,0,0-.1-.44l0-.12,0,0c-.28-.84-.84-1.16-1.94-1a7.07,7.07,0,0,0-2.52.95,56.5,56.5,0,0,1-13.46,5.66,53.22,53.22,0,0,1-10.21,1.52c-2,.14-4.06.26-6.09.38-.06,0-.73.1-.79.12-.8.22-2.12,1-2.19,2.11-.09,1.81-.11,3.61-.1,5.38,0,.65,0,1.29,0,2s0,1.55,0,2.34a.85.85,0,0,0,.64.83c5.35,1.37,7.1,2.77,8.55,6.82a49.39,49.39,0,0,1,1.58,5.56,391.39,391.39,0,0,0,16.81,55.18c.83,2.1,2,2.94,4.11,2.94h.23c4.6-.13,9.64-.13,15.84,0a3.63,3.63,0,0,0,4-2.66c1.29-3.72,2.65-7.49,3.95-11.14,1.54-4.29,3.13-8.72,4.65-13.11,1.29-3.76,2.48-7.54,3.74-11.54.35-1.08.69-2.18,1.05-3.29A189.24,189.24,0,0,0,396,137.44a3.37,3.37,0,0,0,3.53,2.42c2.59,0,5.22,0,7.77,0,3,0,6.12,0,9.19-.07a4.36,4.36,0,0,0,3.35-2.08c9.83-19.52,20-40.41,26.91-62.32C448.67,69.19,450.39,62.6,448.29,55.64Z" transform="translate(-0.01 -0.03)"/><path class="cls-1" d="M605.88,126.3l-6.24-1c-.62-.14-1-.13-1.09-1.94V79.93c0-18.77,0-37.49,0-55.85V6.72a33.82,33.82,0,0,0-.21-5.5,1.41,1.41,0,0,0-1-1,3,3,0,0,0-1.56.19c-1.42.64-3.64,2-5,2.58-9.74,4.77-21.13,6.13-29.51,5.76-1,0-2,0-3.21.09a2.6,2.6,0,0,0-2.67,2.19c-.13,2.38-.11,4.76-.1,7.06,0,.73,0,.94,0,1.65a1.79,1.79,0,0,0,1.22,1.49,11.47,11.47,0,0,0,1.2.28,27.89,27.89,0,0,1,3.4.95,3.66,3.66,0,0,1,2.43,2.28v97.77c0,2.62-.39,2.59-1.09,2.75l-6.24,1c-1.26.17-1.32.83-1.32,1.42v11a1.19,1.19,0,0,0,1.2,1.2H606a1.19,1.19,0,0,0,1.2-1.2v-11C607.2,127.13,607.15,126.47,605.88,126.3Z" transform="translate(-0.01 -0.03)"/><path class="cls-1" d="M665.48,126.3l-6.24-1c-.62-.14-1-.13-1.09-1.94V79.93c0-18.77,0-37.49,0-55.85V6.72a33.82,33.82,0,0,0-.21-5.5,1.41,1.41,0,0,0-1-1,3,3,0,0,0-1.56.19c-1.42.64-3.64,2-5,2.58-9.74,4.77-21.13,6.13-29.51,5.76-1,0-2,0-3.21.09A2.6,2.6,0,0,0,615,11.05c-.13,2.38-.12,4.76-.1,7.06,0,.73,0,.94,0,1.65a1.79,1.79,0,0,0,1.22,1.49,11.47,11.47,0,0,0,1.2.28,27.89,27.89,0,0,1,3.4.95,3.66,3.66,0,0,1,2.43,2.28v97.77c.05,2.62-.39,2.59-1.09,2.75l-6.24,1c-1.27.17-1.32.83-1.32,1.42v11a1.19,1.19,0,0,0,1.2,1.2H665.6a1.19,1.19,0,0,0,1.2-1.2v-11C666.8,127.13,666.75,126.47,665.48,126.3Z" transform="translate(-0.01 -0.03)"/><path class="cls-1" d="M255.13,109.37a.71.71,0,0,0-.61-.26.77.77,0,0,0-.57.33c-4.9,7.57-10.79,11.24-18,11.24a19.23,19.23,0,0,1-13.22-5.31,22.27,22.27,0,0,1-6.27-11.07,2.62,2.62,0,0,1,1.92-3.17l43.13-10.66c3.16-.56,2.57-2.34,2.55-2.7a42.63,42.63,0,0,0-11.32-27.39c-7.29-8-17.22-12.2-28.73-12.2-26.19,0-44.48,20.23-44.48,49.19a45.63,45.63,0,0,0,11.85,31.1,41.75,41.75,0,0,0,14.06,10,48.52,48.52,0,0,0,41.16-1.76,45.82,45.82,0,0,0,17.08-15.45c.18-.27.52-1.15.31-1.4ZM213.72,82.91c0-9.56,1.47-21,8.49-21,6.22,0,8.48,8.32,8.48,13.91,0,3.63-1.62,8.27-9.35,9.76l-6.65,1.28a.82.82,0,0,1-1-.8Z" transform="translate(-0.01 -0.03)"/><path class="cls-1" d="M172.85,126.12l-4-1c-.56-.13-1-.14-1.06-1.45l-.08-47.79a27.19,27.19,0,0,0-8.18-19.42,28.76,28.76,0,0,0-20.4-8.26c-10,0-16.49,3.59-23,7.74a1,1,0,0,1-1.53-.83l-.06-3.18q0-14.1,0-28V6.54a32.66,32.66,0,0,0-.21-5.5,1.41,1.41,0,0,0-1-1,2.87,2.87,0,0,0-1.56.2c-1.42.63-3.64,2-5,2.57C97.1,7.6,85.71,9,77.33,8.6a31.92,31.92,0,0,0-3.2.08,2.6,2.6,0,0,0-2.68,2.19c-.13,2.38-.11,4.76-.1,7.06,0,.73,0,.94,0,1.65a1.76,1.76,0,0,0,1.22,1.49c.6.18.63.15,1.2.29a28.59,28.59,0,0,1,3.41.94,3.64,3.64,0,0,1,2.42,2.28v97.77c.06,2.62-.38,2.59-1.09,2.75l-6.24,1C71,126.29,71,127,71,127.54v11a1.19,1.19,0,0,0,1.2,1.2h48.73a1.19,1.19,0,0,0,1.2-1.2v-11c0-.59-.06-1.25-1.32-1.42l-5.1-1c-.62-.14-1-.13-1.08-1.94V74.58h0c0-3.17,4.07-6.85,8.65-6.85,3.79,0,6.4.94,8,2.87s2.14,4.5,2.14,8.51v42.53c-.11,1.59-.49,3-1.63,3.46l-3.07,1c-1.27.17-1.32.83-1.32,1.42v11a1.19,1.19,0,0,0,1.2,1.2H173a1.19,1.19,0,0,0,1.2-1.2v-11C174.17,127,174.11,126.29,172.85,126.12Z" transform="translate(-0.01 -0.03)"/><path class="cls-1" d="M65.88,130.35l-4.25-11.2a.74.74,0,0,0-.55-.45.76.76,0,0,0-.67.22c-2.41,2.57-4.94,3.57-9,3.57-6.16,0-6.67-6.75-6.67-14.27V65.38H60.22a.74.74,0,0,0,.74-.73V53.3c0-2.46,0-2.57-.74-2.59H44.69V26.24a33,33,0,0,0-.22-5.41,1.4,1.4,0,0,0-1-1,3,3,0,0,0-1.56.19c-1.42.64-3.64,2-5,2.57-8,3.94-13.69,5.73-20.28,6.17-1.35.07-1.92.12-3.32.16-1.1,0-2.27-.14-2.67.36-.53.65-.32.32-.35,4.8v16.6H.74a.74.74,0,0,0-.73.74v13.2a.73.73,0,0,0,.73.73h9.57V109.3c0,11.62,1.44,18.72,4.81,23.73,4.12,6.15,11.1,9,22,9a44.47,44.47,0,0,0,28.2-9.61A1.51,1.51,0,0,0,65.88,130.35Z" transform="translate(-0.01 -0.03)"/><line class="cls-1" x1="1148.7" y1="82.01" x2="1148.7" y2="82.01"/><path class="cls-1" d="M877.23,86.81c-5.77-4.32-13.05-6.34-19.46-8.13-7.76-2.16-13.88-3.86-13.88-8.61a7.4,7.4,0,0,1,3.52-6.7,13.59,13.59,0,0,1,6.53-1.77,24.22,24.22,0,0,0,5.23,10.76c3,3.48,6.75,5.32,10.74,5.32a15.68,15.68,0,0,0,9.46-2.89,10.69,10.69,0,0,0,4.29-8.88c0-11.43-8.86-17.73-25-17.73-15.19,0-40.69,4.19-40.69,32.2,0,9.28,3.18,16.25,9.7,21.31,5.6,4.34,12.74,6.56,19,8.53,8.18,2.55,14.65,4.57,14.65,9.93s-5.67,8.48-11,8.48c-2.21,0-5.46-.56-5.8-1.8l-.08-.31c-2-7.65-4.75-18.13-16.9-18.13a13.73,13.73,0,0,0-10.07,4.34,14.9,14.9,0,0,0-4,10.31c0,7.65,4.22,13.08,12.53,16.13,5.26,1.93,12,2.87,20.57,2.87,7.6,0,18.48-1.15,27.15-6.62,9-5.68,13.54-14.65,13.54-26.66C887.28,99.05,884,91.87,877.23,86.81Z" transform="translate(-0.01 -0.03)"/><path class="cls-1" d="M1070.07,51.5a52,52,0,0,0-36.57,0A41.88,41.88,0,0,0,1019,60.94c-8.48,8.5-13,20.29-13,34.08s4.48,25.71,13,34.24a41.79,41.79,0,0,0,14.51,9.46,52,52,0,0,0,36.57,0,41.93,41.93,0,0,0,14.5-9.44c8.48-8.5,13-20.29,13-34.08s-4.48-25.71-13-34.23A41.86,41.86,0,0,0,1070.07,51.5Zm-10,67.82c-1.35,6.44-3.91,9.31-8.3,9.31s-7-2.87-8.3-9.31c-1.27-6.07-1.27-14.43-1.27-24.12,0-12.57,0-33.61,9.57-33.61s9.57,21,9.57,33.61C1061.35,104.89,1061.35,113.25,1060.08,119.32Z" transform="translate(-0.01 -0.03)"/><path class="cls-1" d="M997.48,126.12l-4-1c-.56-.13-1-.14-1.06-1.45l-.08-47.79a27.19,27.19,0,0,0-8.18-19.42,28.76,28.76,0,0,0-20.4-8.26c-10,0-16.49,3.59-23,7.74a1,1,0,0,1-1.53-.83l-.06-3.18q0-14.1,0-28V6.54A32.66,32.66,0,0,0,939,1a1.41,1.41,0,0,0-1-1,2.87,2.87,0,0,0-1.56.2c-1.42.63-3.64,2-5,2.57C921.73,7.6,910.34,9,902,8.6a31.92,31.92,0,0,0-3.2.08,2.6,2.6,0,0,0-2.68,2.19c-.13,2.38-.11,4.76-.1,7.06,0,.73,0,.94,0,1.65a1.76,1.76,0,0,0,1.22,1.49c.6.18.63.15,1.2.29a28.59,28.59,0,0,1,3.41.94,3.64,3.64,0,0,1,2.42,2.28v97.77c.06,2.62-.38,2.59-1.09,2.75l-6.24,1c-1.26.17-1.32.83-1.32,1.42v11a1.19,1.19,0,0,0,1.21,1.2h48.72a1.19,1.19,0,0,0,1.2-1.2v-11c0-.59-.05-1.25-1.32-1.42l-5.09-1c-.63-.14-1-.13-1.09-1.94V74.58h0c0-3.17,4.07-6.85,8.65-6.85,3.79,0,6.4.94,8,2.87S958,75.1,958,79.11v42.53c-.11,1.59-.49,3-1.63,3.46l-3.07,1c-1.27.17-1.32.83-1.32,1.42v11a1.19,1.19,0,0,0,1.2,1.2H997.6a1.19,1.19,0,0,0,1.2-1.2v-11C998.8,127,998.74,126.29,997.48,126.12Z" transform="translate(-0.01 -0.03)"/><path class="cls-1" d="M1149.1,128.81v-5.17h0" transform="translate(-0.01 -0.03)"/><path class="cls-1" d="M1191.63,62.28c-5.63-9.22-14.24-14.1-24.87-14.1a25.31,25.31,0,0,0-20,9.1,62.93,62.93,0,0,1-2-6.21,1.39,1.39,0,0,0-1-1,3,3,0,0,0-1.56.19c-1.42.64-3.64,2-5,2.58-9.73,4.77-17,5.16-25.38,4.79-1.06,0-2,0-3.21.09a2.61,2.61,0,0,0-2.68,2.19c-.12,2.38-.11,4.76-.09,7.06v1.65a1.77,1.77,0,0,0,1.22,1.49c.61.18.63.15,1.2.29a28.08,28.08,0,0,1,3.41.94,3.67,3.67,0,0,1,2.4,2.21c0,.15,0,.29,0,.43v9.2l0,0v66.44c-.07,2.63-.38,5.67-1.5,5.61l-6.24,1c-1.27.17-1.32.83-1.32,1.42v11a1.19,1.19,0,0,0,1.2,1.2h50a.75.75,0,0,0,.36-.1,1.19,1.19,0,0,0,.72-1.1v-11c0-.59-.06-1.25-1.32-1.42l-6.24-1c-.62-.14-1-.13-1.09-1.94l-.19-9.49v-4.28a27.55,27.55,0,0,0,11,2.52c28.93,0,39.24-26.34,39.24-51C1198.77,80,1196.24,69.8,1191.63,62.28Zm-29.37,57.94c-1.74,5.59-4.42,8.41-8,8.41-2.77,0-4.15-1.12-4.91-4s-.86-7.59-.86-14.8V68.24a8.76,8.76,0,0,1,2.88-.51c5.43,0,9,3.45,11,10.54,1.87,6.8,2,16,2,24.16C1164.4,107.42,1164,114.56,1162.26,120.22Z" transform="translate(-0.01 -0.03)"/></svg>