<?xml version="1.0" encoding="utf-8"?>
<!-- Generator: Adobe Illustrator 22.1.0, SVG Export Plug-In . SVG Version: 6.00 Build 0)  -->
<!DOCTYPE svg PUBLIC "-//W3C//DTD SVG 1.1//EN" "http://www.w3.org/Graphics/SVG/1.1/DTD/svg11.dtd">
<svg version="1.1" id="Layer_1" xmlns="http://www.w3.org/2000/svg" xmlns:xlink="http://www.w3.org/1999/xlink" x="0px" y="0px"
	 viewBox="0 0 160 26" style="enable-background:new 0 0 160 26;" xml:space="preserve">
<style type="text/css">
	.st0{fill:#263A52;}
</style>
<title>tws-logo-blue</title>
<g>
	<circle class="st0" cx="90.4" cy="22.8" r="2.5"/>
	<path class="st0" d="M65.4,18.1c0-0.1-0.2-0.1-0.3,0c-0.7,1.2-1.9,2-3.3,2.1c-1.6,0-2.9-1.2-2.9-2.8c0-0.1,0-0.2,0-0.3
		c0-2.9,3-4.1,6.1-4.4c0.1,0,0.2-0.1,0.2-0.2V9.3c0-0.7-0.4-1.4-1-1.8c-0.1,0-0.1-0.1,0-0.2c0,0,0.1-0.1,0.1-0.1
		c0.5-0.1,1-0.1,1.5-0.1c2.8,0,4.3,1.3,4.3,3.5v6.6c0,0.9,0.4,1.5,0.8,1.6c0.1,0,0.2,0.2,0.2,0.3v0.5c0,0.2-0.1,0.3-0.3,0.3
		c0,0,0,0,0,0h-3.6C66.2,19.9,65.4,19.1,65.4,18.1z M65.2,16.5v-2.8c0-0.1,0-0.1-0.1-0.1c0,0,0,0,0,0c-1.4,0.2-2.5,1.3-2.7,2.8
		c0,0.8,0.5,1.4,1.3,1.5C64.5,17.8,65.1,17.2,65.2,16.5z"/>
	<path class="st0" d="M57.9,13.4c-1.5-0.9-2.1-3-2.1-4.2c0-0.4,0-0.6,0.3-0.7c0.1,0,0.2-0.2,0.2-0.3V7.7c0-0.2-0.1-0.3-0.3-0.3h-5.9
		c-0.2,0-0.3,0.1-0.3,0.3v0.5c0,0.1,0.1,0.3,0.2,0.3c0.4,0.1,0.6,0.2,1.2,1.6l0,0l0.2,0.6c0,0.1,0,0.2,0,0.3l-1.3,3
		c0,0,0,0.1-0.1,0.1c0,0-0.1,0-0.1-0.1l-1.8-4.6c-0.2-0.4-0.3-0.8,0.1-0.9c0.1,0,0.2-0.2,0.2-0.3V7.7c0-0.2-0.1-0.3-0.3-0.3h-5.9
		c-0.2,0-0.3,0.1-0.3,0.3v0.5c0,0.1,0.1,0.3,0.2,0.3c0.4,0.1,0.6,0.2,1.2,1.6l0,0l3.7,9.5c0.1,0.2,0.2,0.3,0.4,0.3h0.6
		c0.2,0,0.4-0.1,0.4-0.3l3.2-7.4c0,0,0.1-0.1,0.1,0c0,0,0,0,0,0l2.8,7.3c0.1,0.2,0.2,0.3,0.4,0.3h0.6c0.2,0,0.4-0.1,0.5-0.3
		c0.4-1.2,1.5-4.9,1.8-5.9C58.1,13.6,58,13.5,57.9,13.4z"/>
	<path class="st0" d="M86.9,18.8c-0.4-0.1-0.8-0.7-0.8-1.6l0,0v-16c0-0.2-0.2-0.5-0.4-0.5c0,0-0.1,0-0.1,0l-4.6,0.8
		c-0.2,0-0.3,0.2-0.3,0.4v0.4c0,0.1,0.1,0.3,0.2,0.3c0.3,0.1,0.5,0.4,0.5,0.7v14c-0.1,0.8-0.4,1.3-0.8,1.4c-0.1,0-0.2,0.2-0.2,0.3
		v0.5c0,0.2,0.1,0.3,0.3,0.3c0,0,0,0,0,0h6.3c0.2,0,0.3-0.1,0.3-0.3v-0.5C87.2,18.9,87.1,18.8,86.9,18.8z"/>
	<path class="st0" d="M99.7,7.4h-2.6c-0.2,0-0.3,0.1-0.3,0.3v0.5c0,0.1,0.1,0.3,0.2,0.3c0.4,0.1,0.8,0.5,0.7,0.9
		c0,0.1,0,0.2-0.1,0.2l-2,4.4c0,0-0.1,0.1-0.1,0c0,0,0,0,0,0l-1.8-4.8C93.6,9,93.6,8.6,94,8.5c0.1,0,0.2-0.2,0.2-0.3V7.7
		c0-0.2-0.1-0.3-0.3-0.3h-6c-0.2,0-0.3,0.1-0.3,0.3c0,0,0,0,0,0v0.5c0,0.1,0.1,0.3,0.2,0.3c0.3,0.1,0.6,0.2,1,1.1l3.9,10
		c0.1,0.1,0.2,0.2,0.4,0.2h0.8c0.2,0,0.3-0.1,0.3-0.2l4.3-9.9l0,0c0.5-1.1,0.7-1.2,1.3-1.3c0.1,0,0.2-0.2,0.2-0.3V7.7
		C100,7.5,99.9,7.4,99.7,7.4z"/>
	<circle class="st0" cx="60.7" cy="9.9" r="2.5"/>
	<path class="st0" d="M78.9,18.8c-0.4-0.1-0.8-0.7-0.8-1.6l0,0v-16c0-0.2-0.2-0.5-0.4-0.5c0,0-0.1,0-0.1,0l-4.6,0.8
		c-0.2,0-0.3,0.2-0.3,0.4v0.4c0,0.1,0.1,0.3,0.2,0.3c0.3,0.1,0.5,0.4,0.5,0.7v14c-0.1,0.8-0.4,1.3-0.8,1.4c-0.1,0-0.2,0.2-0.2,0.3
		v0.5c0,0.2,0.1,0.3,0.3,0.3c0,0,0,0,0,0h6.3c0.2,0,0.3-0.1,0.3-0.3v-0.5C79.1,18.9,79,18.8,78.9,18.8z"/>
	<path class="st0" d="M37.4,12.8L37.4,12.8c0,0.3-0.2,0.6-0.5,0.6c0,0,0,0,0,0h-6.7c-0.1,0-0.2,0.1-0.2,0.2c0.1,2.2,1.4,3.8,3.4,3.8
		c1.3,0.1,2.6-0.5,3.4-1.5c0.1-0.1,0.3-0.1,0.4-0.1l0,0c0.1,0.1,0.2,0.2,0.1,0.4c-0.7,2.5-3,4.1-5.6,4c-3.4,0-6.7-2.3-6.7-6.2
		c0-4.8,3.5-6.8,6.8-6.8c3,0,5.4,2.5,5.4,5.5C37.4,12.7,37.4,12.7,37.4,12.8z M30.3,12.4h2.9c0.1,0,0.2-0.1,0.2-0.2
		c0-1.8-0.2-4-1.6-4c-1.3,0-1.7,1.7-1.8,4C30,12.3,30.1,12.4,30.3,12.4z"/>
	<path class="st0" d="M131.5,13.9c-0.2-3.5,2.6-6.6,6.1-6.7c0.2,0,0.4,0,0.6,0c3.7,0,6.7,2.4,6.7,6.2c0.2,3.6-2.6,6.6-6.2,6.7
		c-0.2,0-0.4,0-0.5,0C134.5,20.1,131.5,17.7,131.5,13.9z M140,14.4c0-3.8-0.5-6.3-1.9-6.3s-1.7,1.8-1.7,4.7c0,3.8,0.5,6.3,1.9,6.3
		S140,17.4,140,14.4L140,14.4z"/>
	<path class="st0" d="M154.9,7.2c-1.4,0-2.8,0.7-3.6,1.9c-0.1,0.1-0.2,0-0.2,0c0,0,0,0,0,0V7.5c0-0.3-0.2-0.5-0.5-0.5
		c0,0-0.1,0-0.1,0l-4.6,0.8c-0.2,0-0.3,0.2-0.3,0.4v0.4c0,0.2,0.1,0.3,0.2,0.4c0.3,0.1,0.5,0.4,0.4,0.7v12.5
		c-0.1,0.8-0.4,1.3-0.8,1.4c-0.1,0-0.2,0.2-0.2,0.3v0.5c0,0.2,0.1,0.3,0.3,0.3h6.3c0.2,0,0.3-0.1,0.3-0.3V24c0-0.1-0.1-0.3-0.2-0.3
		c-0.4-0.1-0.8-0.7-0.8-1.6l0,0v-2.8c0-0.1,0.1-0.2,0.2-0.2c0,0,0.1,0,0.1,0c0.6,0.6,1.5,1,2.3,0.9c3.2,0,5.9-2.1,5.9-6.9
		C159.5,9.6,157.6,7.2,154.9,7.2z M152.6,19c-1.2,0-1.6-1.3-1.6-2.8v-5.9c0-0.2,0.1-0.3,0.2-0.4c0.4-0.2,0.7-0.3,1.1-0.3
		c1.5,0,2.2,1.4,2.2,4.5C154.6,16.9,154,19,152.6,19z"/>
	<path class="st0" d="M24.7,18.8c-0.4-0.1-0.8-0.7-0.8-1.6v-6.6c0-2.2-1.5-3.4-4.3-3.4c-1.1,0-2.2,0.4-3,1.2c-0.1,0.1,0,0.2,0,0.2
		c0,0,0.1,0,0.2,0c1.1-0.3,2.2,0,2.2,1.2v7.3l0,0c0,0.9-0.4,1.5-0.8,1.6c-0.1,0-0.2,0.2-0.2,0.3v0.5c0,0.2,0.1,0.3,0.3,0.3h6.3
		c0.2,0,0.3-0.1,0.3-0.3v-0.5C24.9,18.9,24.8,18.8,24.7,18.8z"/>
	<path class="st0" d="M16.6,18.8c-0.4-0.1-0.8-0.7-0.8-1.6l0,0v-15c0-0.2-0.2-0.5-0.4-0.5c0,0-0.1,0-0.1,0l-4.6,0.8
		c-0.2,0-0.3,0.2-0.3,0.4v0.3c0,0.1,0.1,0.3,0.2,0.3C10.8,3.7,11,4,11,4.3v13c-0.1,0.8-0.4,1.3-0.8,1.4c-0.1,0-0.2,0.2-0.2,0.3v0.5
		c0,0.2,0.1,0.3,0.3,0.3c0,0,0,0,0,0h6.3c0.2,0,0.3-0.1,0.3-0.3c0,0,0,0,0,0V19C16.9,18.9,16.8,18.8,16.6,18.8z"/>
	<path class="st0" d="M131.1,18.8c-0.4-0.1-0.8-0.7-0.8-1.6v-6.6c0-2.2-1.5-3.4-4.3-3.4c-1.1,0-2.2,0.4-3,1.2c-0.1,0.1,0,0.2,0,0.2
		c0,0,0.1,0,0.2,0c1.1-0.3,2.2,0,2.2,1.2v7.3l0,0c0,0.9-0.4,1.5-0.8,1.6c-0.1,0-0.2,0.2-0.2,0.3v0.5c0,0.2,0.1,0.3,0.3,0.3h6.2
		c0.2,0,0.3-0.1,0.3-0.3c0,0,0,0,0,0v-0.5C131.3,18.9,131.2,18.8,131.1,18.8z"/>
	<path class="st0" d="M123.1,18.8c-0.4-0.1-0.8-0.7-0.8-1.6l0,0v-15c0-0.2-0.2-0.5-0.4-0.5c0,0-0.1,0-0.1,0l-4.6,0.8
		c-0.2,0-0.3,0.2-0.3,0.4v0.3c0,0.1,0.1,0.3,0.2,0.3c0.3,0.1,0.5,0.4,0.5,0.7v13c-0.1,0.8-0.4,1.3-0.8,1.4c-0.1,0-0.2,0.2-0.2,0.3
		v0.5c0,0.2,0.1,0.3,0.3,0.3c0,0,0,0,0,0h6.3c0.2,0,0.3-0.1,0.3-0.3c0,0,0,0,0,0V19C123.3,18.9,123.2,18.8,123.1,18.8z"/>
	<path class="st0" d="M9.4,17.6L9.4,17.6c-0.1-0.1-0.2-0.1-0.3,0c0,0,0,0,0,0c-0.3,0.4-0.7,0.6-1.2,0.6c-0.6,0.1-1.1-0.4-1.2-1
		c0,0,0-0.1,0-0.1V9.8c0-0.1,0.1-0.2,0.2-0.2h1.7c0.2,0,0.4-0.2,0.4-0.4V8.4C9.1,8.2,9,8,8.8,8H6.9C6.8,8,6.7,7.9,6.7,7.8V4.6
		c0-0.4-0.7-0.6-1-0.2C4.8,5.8,3.2,7.8,1,8l0,0C0.7,8,0.5,8.2,0.5,8.4c0,0,0,0,0,0v0.6c0,0.2,0.2,0.4,0.4,0.4h0.6
		c0.1,0,0.2,0.1,0.2,0.2v6.8C1.8,18.7,3.2,20,6,20c1.5,0,2.8-0.8,3.4-2.1C9.5,17.8,9.4,17.7,9.4,17.6z"/>
	<path class="st0" d="M111,11.3c-1.6-0.5-2.3-1.1-2.3-1.9s0.8-1.3,1.7-1.3c1.8,0,1.3,1.5,1.5,2.1l0,0c0.2,0.9,1.2,1.5,2.1,1.2
		c0.7-0.2,1.3-0.9,1.3-1.6l0,0c0-0.1,0-0.3,0-0.4c-0.1-0.4-0.3-0.7-0.6-1c-1.1-1-3.2-1.3-4.4-1.3c-3,0-5.4,1.5-5.4,4.1
		c0,2.4,1.8,3.6,4.6,4.4c1.7,0.5,2.3,0.9,2.3,1.9c0,0.8-0.6,1.6-1.5,1.6c-0.1,0-0.3,0-0.4,0c-0.9,0.1-1.7-0.5-1.8-1.4
		c0-0.2,0-0.3,0-0.5l0,0c0.1-1-0.7-1.9-1.7-2c-1-0.1-1.9,0.7-2,1.7c0,0.1,0,0.2,0,0.3c0,0.4,0.1,0.7,0.3,1l0,0l0,0
		c0,0.1,0.1,0.1,0.1,0.1l0,0l0.1,0.1c1.4,1.2,3.2,1.7,5,1.6c3.3,0,5.7-1.5,5.7-4.2C115.7,13.4,113.9,12.2,111,11.3z"/>
</g>
</svg>
